# xmcd CD database file
# Copyright (C) 1997 Ti Kan
# 
# Track frame offsets:
#     150
#     16192
#     32870
#     52242
#     65305
#     79155
#     96207
#     107952
#     122357
#     141392
#     153482
#     163275
#     179597
#     193715
#     207932
#     225955
#     240090
#     254697
#     269845
#     283895
#     303615
# 
# Disc length: 4247 seconds
# 
# Revision: 1
# Processed by: cddbd v1.4b41PL1 Copyright (c) Steve Scherf et al.
# Submitted via: DiscPlay 4.0.3
# 
DISCID=39109515
DTITLE=Jerry Lee Lewis - The Complete Palomino Club Recordings CD #1
DYEAR=1900
DGENRE=
TTITLE0=You Win Again
TTITLE1=What Made Milwaukee Famous
TTITLE2=What'd I Say
TTITLE3=Meat Man
TTITLE4=Another Place, Another Time
TTITLE5=I Can't Stop Loving You
TTITLE6=Your Cheatin' Heart
TTITLE7=Big Legged Woman
TTITLE8=Whole Lotta Shakin' Goin' On
TTITLE9=Great Balls Of Fire
TTITLE10=Rockin' My Life Away
TTITLE11=Harbor Lights
TTITLE12=Bottles And Barstools
TTITLE13=You Belong To Me
TTITLE14=Who's Gonna Play This Old Piano
TTITLE15=Careless Hands
TTITLE16=Trouble In Mind
TTITLE17=Who Will The Next Fool Be
TTITLE18=Touching Home
TTITLE19=More To Love Than This
TTITLE20=Cold Cold Heart
EXTD=
EXTT0=
EXTT1=
EXTT2=
EXTT3=
EXTT4=
EXTT5=
EXTT6=
EXTT7=
EXTT8=
EXTT9=
EXTT10=
EXTT11=
EXTT12=
EXTT13=
EXTT14=
EXTT15=
EXTT16=
EXTT17=
EXTT18=
EXTT19=
EXTT20=
PLAYORDER=
